<svg id="svg" version="1.1" xmlns="http://www.w3.org/2000/svg" xmlns:xlink="http://www.w3.org/1999/xlink" width="400" height="400" viewBox="0, 0, 400,400"><g id="svgg"><path id="path0" d="M194.444 120.598 C 152.872 124.415,122.570 155.602,120.174 197.037 C 117.955 235.394,146.786 271.910,184.735 278.807 L 186.667 279.158 186.667 252.172 L 186.667 225.185 176.481 225.185 L 166.296 225.185 166.296 213.148 L 166.296 201.111 176.481 201.111 L 186.667 201.111 186.667 192.305 C 186.667 187.462,186.838 182.087,187.047 180.361 C 189.505 160.100,209.119 148.783,233.432 153.596 L 234.456 153.799 234.358 163.844 L 234.259 173.889 225.926 174.074 C 211.921 174.385,210.741 175.758,210.741 191.733 L 210.741 201.111 221.631 201.111 L 232.522 201.111 232.339 202.500 C 232.239 203.264,231.546 208.639,230.801 214.444 L 229.444 225.000 220.093 225.099 L 210.741 225.198 210.741 252.358 L 210.741 279.517 212.870 279.188 C 261.110 271.722,291.347 221.147,275.492 174.444 C 264.018 140.645,229.060 117.420,194.444 120.598 " stroke="none" fill="#f3ebea" fill-rule="evenodd"></path><path id="path1" d="M0.000 200.000 L 0.000 400.000 200.000 400.000 L 400.000 400.000 400.000 200.000 L 400.000 0.000 200.000 0.000 L 0.000 0.000 0.000 200.000 M210.429 120.959 C 275.776 129.369,303.249 209.987,256.686 256.700 C 244.441 268.983,223.261 279.630,211.068 279.630 C 210.384 279.630,210.368 278.917,210.461 252.315 L 210.556 225.000 219.876 224.901 L 229.196 224.802 229.415 223.420 C 229.641 221.994,232.222 201.991,232.222 201.664 C 232.222 201.564,227.293 201.481,221.269 201.481 L 210.317 201.481 210.440 191.574 C 210.575 180.725,210.644 180.335,212.973 177.394 C 215.327 174.423,217.215 173.906,226.210 173.770 L 234.086 173.651 233.987 163.770 L 233.889 153.889 230.926 153.439 C 210.562 150.350,193.915 158.412,188.697 173.889 C 187.293 178.051,187.043 180.699,187.040 191.389 L 187.037 201.481 176.852 201.481 L 166.667 201.481 166.667 213.148 L 166.667 224.815 176.852 224.815 L 187.037 224.815 187.037 252.072 L 187.037 279.329 185.093 279.064 C 161.693 275.874,136.897 256.157,126.650 232.593 C 101.822 175.493,148.710 113.015,210.429 120.959 " stroke="none" fill="#346474" fill-rule="evenodd"></path><path id="path2" d="M234.236 163.889 C 234.236 169.389,234.288 171.691,234.351 169.004 C 234.414 166.317,234.414 161.817,234.351 159.004 C 234.288 156.191,234.236 158.389,234.236 163.889 M210.545 192.500 L 210.556 201.296 221.296 201.305 L 232.037 201.313 221.396 201.207 L 210.754 201.100 210.645 192.402 L 210.535 183.703 210.545 192.500 M171.574 201.388 C 174.375 201.451,178.958 201.451,181.759 201.388 C 184.560 201.325,182.269 201.274,176.667 201.274 C 171.065 201.274,168.773 201.325,171.574 201.388 M210.546 252.407 C 210.546 267.481,210.592 273.594,210.648 265.991 C 210.704 258.388,210.704 246.055,210.648 238.584 C 210.592 231.113,210.546 237.333,210.546 252.407 " stroke="none" fill="#8ca4ac" fill-rule="evenodd"></path><path id="path3" d="M223.816 173.980 C 225.812 174.047,228.979 174.046,230.853 173.979 C 232.726 173.912,231.093 173.858,227.222 173.858 C 223.352 173.858,221.819 173.913,223.816 173.980 M186.828 191.667 C 186.828 196.963,186.880 199.078,186.944 196.367 C 187.007 193.656,187.007 189.323,186.943 186.737 C 186.880 184.152,186.828 186.370,186.828 191.667 M279.744 197.963 C 279.746 199.185,279.816 199.641,279.898 198.975 C 279.980 198.309,279.979 197.309,279.894 196.753 C 279.810 196.196,279.742 196.741,279.744 197.963 M166.462 213.148 C 166.462 219.870,166.512 222.673,166.573 219.375 C 166.635 216.078,166.635 210.578,166.574 207.153 C 166.512 203.728,166.462 206.426,166.462 213.148 M279.736 202.778 C 279.738 203.796,279.810 204.169,279.895 203.606 C 279.981 203.043,279.978 202.210,279.890 201.754 C 279.802 201.299,279.733 201.759,279.736 202.778 M186.842 252.222 C 186.842 267.194,186.888 273.319,186.944 265.833 C 187.000 258.347,187.000 246.097,186.944 238.611 C 186.888 231.125,186.842 237.250,186.842 252.222 M256.097 257.130 L 254.259 259.074 256.204 257.236 C 257.273 256.225,258.148 255.350,258.148 255.292 C 258.148 255.015,257.805 255.323,256.097 257.130 " stroke="none" fill="#9cacb4" fill-rule="evenodd"></path><path id="path4" d="M222.875 152.855 C 223.335 152.943,224.002 152.940,224.356 152.847 C 224.710 152.754,224.333 152.682,223.519 152.686 C 222.704 152.690,222.414 152.766,222.875 152.855 M195.347 162.685 L 194.259 163.889 195.463 162.801 C 196.125 162.203,196.667 161.661,196.667 161.597 C 196.667 161.311,196.361 161.563,195.347 162.685 M171.782 225.092 C 174.697 225.155,179.363 225.154,182.152 225.092 C 184.941 225.029,182.556 224.977,176.852 224.978 C 171.148 224.978,168.867 225.029,171.782 225.092 M215.278 225.092 C 217.875 225.155,222.125 225.155,224.722 225.092 C 227.319 225.028,225.194 224.976,220.000 224.976 C 214.806 224.976,212.681 225.028,215.278 225.092 " stroke="none" fill="#77929b" fill-rule="evenodd"></path></g></svg>