<svg id="svg" version="1.1" xmlns="http://www.w3.org/2000/svg" xmlns:xlink="http://www.w3.org/1999/xlink" width="400" height="400" viewBox="0, 0, 400,400"><g id="svgg"><path id="path0" d="M194.815 120.232 C 130.030 124.881,97.232 200.482,138.231 250.657 C 174.557 295.113,245.232 287.381,271.182 236.111 C 298.966 181.218,255.886 115.849,194.815 120.232 M231.296 161.515 C 233.930 162.321,237.443 164.357,239.283 166.142 L 240.603 167.423 243.902 166.467 C 245.717 165.941,248.748 164.874,250.638 164.096 C 252.816 163.199,254.074 162.847,254.074 163.133 C 254.074 164.515,251.462 168.589,248.900 171.204 C 247.354 172.782,246.291 174.074,246.539 174.074 C 247.489 174.074,252.135 172.966,254.225 172.241 C 255.428 171.823,256.478 171.481,256.557 171.481 C 257.422 171.481,251.096 178.639,248.374 180.741 L 246.695 182.037 246.681 184.952 C 246.663 188.610,245.790 194.626,244.577 199.444 C 234.787 238.345,193.977 256.603,156.204 238.980 C 151.636 236.849,151.649 236.823,157.315 236.558 C 167.330 236.090,174.912 233.723,181.289 229.074 L 183.321 227.593 182.123 227.302 C 172.534 224.971,167.904 221.854,164.840 215.669 C 163.294 212.548,163.226 212.638,167.130 212.658 C 172.070 212.684,172.986 212.229,170.108 211.180 C 165.370 209.452,160.104 204.897,158.305 200.969 C 156.863 197.817,155.582 190.313,156.574 190.821 C 158.963 192.046,160.721 192.669,162.315 192.856 L 164.259 193.084 162.210 190.867 C 156.128 184.287,154.565 174.707,158.197 166.266 C 159.157 164.034,158.884 163.997,161.391 166.705 C 171.775 177.921,189.315 186.667,201.426 186.667 L 202.778 186.667 202.820 182.870 C 202.989 167.721,217.070 157.161,231.296 161.515 " stroke="none" fill="#f3ebea" fill-rule="evenodd"></path><path id="path1" d="M0.000 200.000 L 0.000 400.000 200.000 400.000 L 400.000 400.000 400.000 200.000 L 400.000 0.000 200.000 0.000 L 0.000 0.000 0.000 200.000 M208.704 120.379 C 263.489 126.500,296.032 185.275,272.098 234.874 C 252.755 274.958,203.685 291.581,163.966 271.505 C 127.703 253.176,110.879 210.524,124.848 172.330 C 137.370 138.090,172.490 116.332,208.704 120.379 M221.230 161.148 C 210.345 162.965,203.172 171.596,203.155 182.898 L 203.148 187.093 200.556 186.850 C 186.457 185.530,173.600 179.112,162.315 167.764 C 160.635 166.074,159.160 164.791,159.037 164.913 C 158.373 165.577,156.971 170.512,156.591 173.520 C 155.793 179.837,157.925 186.037,162.562 190.881 L 165.000 193.428 162.778 193.168 C 161.556 193.025,159.660 192.503,158.566 192.009 C 157.472 191.515,156.548 191.111,156.512 191.111 C 156.210 191.111,157.144 197.001,157.754 198.946 C 159.402 204.204,167.411 211.479,171.552 211.481 C 171.897 211.481,172.276 211.639,172.395 211.832 C 172.745 212.398,170.038 212.959,166.944 212.961 C 163.584 212.963,163.612 212.900,165.442 216.383 C 168.124 221.488,171.982 224.196,179.778 226.444 C 183.877 227.627,183.762 227.434,181.417 229.184 C 175.271 233.774,168.939 235.838,158.158 236.765 L 152.797 237.226 156.306 238.838 C 198.977 258.439,242.382 233.494,246.357 187.086 L 246.801 181.899 249.557 179.403 C 252.139 177.065,256.433 172.236,256.167 171.970 C 256.101 171.904,255.124 172.168,253.996 172.556 C 252.134 173.196,250.374 173.601,246.668 174.239 L 245.373 174.462 247.822 172.131 C 250.530 169.553,254.936 162.963,253.951 162.963 C 253.905 162.963,252.512 163.534,250.857 164.232 C 242.599 167.715,240.868 167.923,238.427 165.729 C 233.997 161.746,227.698 160.068,221.230 161.148 " stroke="none" fill="#346474" fill-rule="evenodd"></path><path id="path2" d="M254.815 142.037 C 255.506 142.750,256.155 143.333,256.256 143.333 C 256.358 143.333,255.876 142.750,255.185 142.037 C 254.494 141.324,253.845 140.741,253.744 140.741 C 253.642 140.741,254.124 141.324,254.815 142.037 M256.667 143.820 C 256.667 143.883,257.208 144.425,257.870 145.023 L 259.074 146.111 257.986 144.907 C 256.972 143.785,256.667 143.533,256.667 143.820 M224.537 160.626 C 224.894 160.719,225.477 160.719,225.833 160.626 C 226.190 160.533,225.898 160.456,225.185 160.456 C 224.472 160.456,224.181 160.533,224.537 160.626 M202.704 182.963 C 202.704 184.083,202.773 184.542,202.858 183.981 C 202.943 183.421,202.943 182.505,202.858 181.944 C 202.773 181.384,202.704 181.843,202.704 182.963 M279.716 195.926 C 279.716 196.639,279.792 196.931,279.885 196.574 C 279.978 196.218,279.978 195.634,279.885 195.278 C 279.792 194.921,279.716 195.213,279.716 195.926 M152.593 236.954 C 152.593 237.112,153.259 237.178,154.074 237.101 C 154.889 237.023,155.556 236.893,155.556 236.813 C 155.556 236.732,154.889 236.667,154.074 236.667 C 153.259 236.667,152.593 236.796,152.593 236.954 M185.463 245.823 C 186.125 245.906,187.208 245.906,187.870 245.823 C 188.532 245.741,187.991 245.674,186.667 245.674 C 185.343 245.674,184.801 245.741,185.463 245.823 " stroke="none" fill="#9cacb4" fill-rule="evenodd"></path><path id="path3" d="M161.481 190.116 C 161.481 190.180,162.023 190.721,162.685 191.320 L 163.889 192.407 162.801 191.204 C 161.787 190.082,161.481 189.830,161.481 190.116 M228.686 227.870 L 227.222 229.444 228.796 227.980 C 230.260 226.619,230.541 226.296,230.260 226.296 C 230.200 226.296,229.492 227.005,228.686 227.870 " stroke="none" fill="#78939e" fill-rule="evenodd"></path><path id="path4" d="" stroke="none" fill="#8ca2ac" fill-rule="evenodd"></path></g></svg>