<svg id="svg" version="1.1" xmlns="http://www.w3.org/2000/svg" xmlns:xlink="http://www.w3.org/1999/xlink" width="400" height="400" viewBox="0, 0, 400,400"><g id="svgg"><path id="path0" d="M194.815 120.232 C 130.030 124.881,97.232 200.482,138.231 250.657 C 174.557 295.113,245.232 287.381,271.182 236.111 C 298.966 181.218,255.886 115.849,194.815 120.232 M231.667 148.473 C 241.732 151.857,248.452 158.636,251.540 168.519 L 252.407 171.296 252.407 199.630 C 252.407 231.461,252.503 230.208,249.618 236.174 C 246.002 243.655,239.362 249.211,231.219 251.571 C 228.334 252.407,228.322 252.407,199.815 252.407 L 171.296 252.407 168.534 251.540 C 158.521 248.396,151.577 241.457,148.460 231.481 L 147.593 228.704 147.593 200.000 L 147.593 171.296 148.460 168.519 C 151.471 158.882,158.374 151.777,167.690 148.724 C 171.298 147.542,173.069 147.479,201.111 147.540 L 229.074 147.601 231.667 148.473 M172.963 156.916 C 165.822 158.164,159.955 163.283,157.545 170.370 C 156.892 172.289,156.852 174.016,156.852 200.000 C 156.852 225.984,156.892 227.711,157.545 229.630 C 159.660 235.848,164.152 240.340,170.370 242.455 C 172.289 243.108,174.016 243.148,200.000 243.148 C 225.984 243.148,227.711 243.108,229.630 242.455 C 235.848 240.340,240.340 235.848,242.455 229.630 C 243.534 226.457,243.525 173.498,242.445 170.370 C 240.350 164.305,236.124 159.964,230.075 157.663 C 228.078 156.904,176.866 156.234,172.963 156.916 M231.233 165.320 C 233.677 166.341,235.530 169.722,235.047 172.279 C 234.112 177.225,228.261 179.435,224.603 176.223 C 218.973 171.280,224.347 162.443,231.233 165.320 M206.963 174.112 C 225.529 178.796,232.978 202.444,220.494 217.069 C 204.304 236.036,173.295 224.832,173.340 200.033 C 173.372 182.166,189.526 169.712,206.963 174.112 M197.778 182.631 C 183.380 184.433,177.356 202.091,187.633 212.367 C 198.674 223.408,217.447 215.621,217.447 200.000 C 217.447 189.332,208.359 181.306,197.778 182.631 " stroke="none" fill="#f3ebea" fill-rule="evenodd"></path><path id="path1" d="M0.000 200.000 L 0.000 400.000 200.000 400.000 L 400.000 400.000 400.000 200.000 L 400.000 0.000 200.000 0.000 L 0.000 0.000 0.000 200.000 M209.644 120.529 C 275.668 128.762,303.542 209.240,256.681 256.336 C 209.594 303.660,128.814 275.957,120.530 209.644 C 114.132 158.426,158.417 114.142,209.644 120.529 M169.433 148.473 C 160.945 150.561,153.922 156.421,150.218 164.504 C 147.756 169.876,147.778 169.565,147.778 200.000 C 147.778 230.390,147.760 230.132,150.190 235.435 C 153.985 243.717,161.251 249.689,169.888 251.625 C 174.434 252.644,226.521 252.513,230.589 251.473 C 240.331 248.981,247.735 242.076,251.028 232.407 L 252.037 229.444 252.145 201.111 C 252.240 175.919,252.184 172.470,251.642 170.000 C 249.320 159.418,240.684 150.744,230.112 148.375 C 225.960 147.445,173.267 147.530,169.433 148.473 M229.785 157.328 C 234.577 159.127,238.348 162.210,240.749 166.291 C 243.628 171.183,243.519 169.840,243.519 200.185 L 243.519 227.222 242.662 229.700 C 240.539 235.844,235.844 240.539,229.700 242.662 L 227.222 243.519 200.000 243.519 L 172.778 243.519 170.300 242.662 C 164.156 240.539,159.461 235.844,157.338 229.700 L 156.481 227.222 156.481 200.000 L 156.481 172.778 157.338 170.300 C 159.883 162.934,166.705 157.266,173.889 156.549 C 180.469 155.891,227.713 156.550,229.785 157.328 M226.539 165.355 C 219.776 167.766,221.583 177.407,228.797 177.407 C 235.969 177.407,237.049 167.137,230.081 165.201 C 228.375 164.728,228.288 164.732,226.539 165.355 M194.630 173.864 C 170.112 179.609,165.641 211.860,187.752 223.479 C 205.360 232.732,226.478 219.819,226.452 199.815 C 226.431 183.163,210.475 170.152,194.630 173.864 M204.244 182.789 C 217.546 186.254,222.174 202.340,212.720 212.251 C 203.136 222.299,186.320 217.800,182.789 204.244 C 179.488 191.570,191.570 179.488,204.244 182.789 " stroke="none" fill="#346474" fill-rule="evenodd"></path><path id="path2" d="M187.315 147.685 C 194.292 147.741,205.708 147.741,212.685 147.685 C 219.662 147.629,213.954 147.583,200.000 147.583 C 186.046 147.583,180.338 147.629,187.315 147.685 M147.583 200.000 C 147.583 213.954,147.629 219.662,147.685 212.685 C 147.741 205.708,147.741 194.292,147.685 187.315 C 147.629 180.338,147.583 186.046,147.583 200.000 M252.397 199.444 C 252.397 213.093,252.443 218.622,252.500 211.732 C 252.556 204.842,252.556 193.676,252.500 186.917 C 252.443 180.159,252.397 185.796,252.397 199.444 M187.315 252.500 C 194.292 252.556,205.708 252.556,212.685 252.500 C 219.662 252.443,213.954 252.397,200.000 252.397 C 186.046 252.397,180.338 252.443,187.315 252.500 " stroke="none" fill="#7e97a0" fill-rule="evenodd"></path><path id="path3" d="M254.815 142.037 C 255.506 142.750,256.155 143.333,256.256 143.333 C 256.358 143.333,255.876 142.750,255.185 142.037 C 254.494 141.324,253.845 140.741,253.744 140.741 C 253.642 140.741,254.124 141.324,254.815 142.037 M256.667 143.820 C 256.667 143.883,257.208 144.425,257.870 145.023 L 259.074 146.111 257.986 144.907 C 256.972 143.785,256.667 143.533,256.667 143.820 M199.352 173.218 C 199.708 173.311,200.292 173.311,200.648 173.218 C 201.005 173.125,200.713 173.049,200.000 173.049 C 199.287 173.049,198.995 173.125,199.352 173.218 M279.716 195.926 C 279.716 196.639,279.792 196.931,279.885 196.574 C 279.978 196.218,279.978 195.634,279.885 195.278 C 279.792 194.921,279.716 195.213,279.716 195.926 " stroke="none" fill="#9cacb4" fill-rule="evenodd"></path><path id="path4" d="M188.056 156.574 C 194.625 156.631,205.375 156.631,211.944 156.574 C 218.514 156.517,213.139 156.471,200.000 156.471 C 186.861 156.471,181.486 156.517,188.056 156.574 M156.471 200.000 C 156.471 213.139,156.517 218.514,156.574 211.944 C 156.631 205.375,156.631 194.625,156.574 188.056 C 156.517 181.486,156.471 186.861,156.471 200.000 M243.508 200.000 C 243.508 213.139,243.554 218.514,243.611 211.944 C 243.668 205.375,243.668 194.625,243.611 188.056 C 243.554 181.486,243.508 186.861,243.508 200.000 M188.056 243.611 C 194.625 243.668,205.375 243.668,211.944 243.611 C 218.514 243.554,213.139 243.508,200.000 243.508 C 186.861 243.508,181.486 243.554,188.056 243.611 " stroke="none" fill="#8fa3ac" fill-rule="evenodd"></path></g></svg>