<svg id="svg" version="1.1" xmlns="http://www.w3.org/2000/svg" xmlns:xlink="http://www.w3.org/1999/xlink" width="400" height="400" viewBox="0, 0, 400,400"><g id="svgg"><path id="path0" d="M194.815 120.232 C 137.614 124.337,102.959 185.067,128.758 235.989 C 158.303 294.304,241.697 294.304,271.242 235.989 C 298.977 181.245,255.805 115.855,194.815 120.232 M171.667 153.103 C 182.305 158.120,178.942 173.839,167.222 173.879 C 157.635 173.911,152.762 163.080,159.030 155.670 C 161.757 152.445,167.709 151.236,171.667 153.103 M232.392 181.308 C 239.144 183.067,243.879 188.145,245.675 195.556 C 246.797 200.181,247.037 205.177,247.037 223.874 L 247.037 242.593 237.593 242.593 L 228.148 242.593 228.142 225.463 C 228.134 205.327,227.870 203.161,225.049 200.057 C 221.712 196.384,214.002 196.888,210.369 201.016 C 207.402 204.386,207.407 204.344,207.407 224.644 L 207.407 242.593 197.776 242.593 L 188.144 242.593 188.239 212.315 L 188.333 182.037 197.778 182.037 L 207.222 182.037 207.328 185.837 L 207.433 189.638 209.180 187.356 C 211.655 184.120,215.704 181.822,220.370 181.004 C 222.783 180.581,230.334 180.772,232.392 181.308 M176.667 212.222 L 176.667 242.593 167.222 242.593 L 157.778 242.593 157.778 212.222 L 157.778 181.852 167.222 181.852 L 176.667 181.852 176.667 212.222 " stroke="none" fill="#f3ebea" fill-rule="evenodd"></path><path id="path1" d="M0.000 200.000 L 0.000 400.000 200.000 400.000 L 400.000 400.000 400.000 200.000 L 400.000 0.000 200.000 0.000 L 0.000 0.000 0.000 200.000 M208.704 120.379 C 263.489 126.500,296.032 185.275,272.098 234.874 C 252.755 274.958,203.685 291.581,163.966 271.505 C 127.703 253.176,110.879 210.524,124.848 172.330 C 137.370 138.090,172.490 116.332,208.704 120.379 M164.259 152.740 C 152.376 156.499,154.738 173.750,167.136 173.750 C 175.892 173.750,180.882 164.121,175.905 156.832 C 173.436 153.217,168.374 151.439,164.259 152.740 M222.407 180.966 C 215.303 182.008,210.860 184.488,208.224 188.886 L 207.222 190.556 207.117 186.389 L 207.013 182.222 197.766 182.222 L 188.519 182.222 188.519 212.407 L 188.519 242.593 197.765 242.593 L 207.011 242.593 207.116 224.352 L 207.222 206.111 208.193 204.042 C 212.347 195.182,224.267 195.007,227.284 203.762 C 228.274 206.636,228.513 211.132,228.516 226.944 L 228.519 242.593 237.817 242.593 L 247.115 242.593 246.938 222.685 C 246.713 197.415,246.204 193.784,242.085 188.010 C 238.301 182.708,230.231 179.819,222.407 180.966 M157.778 212.407 L 157.778 242.593 167.037 242.593 L 176.296 242.593 176.296 212.407 L 176.296 182.222 167.037 182.222 L 157.778 182.222 157.778 212.407 " stroke="none" fill="#346474" fill-rule="evenodd"></path><path id="path2" d="M254.074 141.227 C 254.074 141.291,254.616 141.832,255.278 142.431 L 256.481 143.519 255.394 142.315 C 254.380 141.193,254.074 140.941,254.074 141.227 M256.667 143.820 C 256.667 143.883,257.208 144.425,257.870 145.023 L 259.074 146.111 257.986 144.907 C 256.972 143.785,256.667 143.533,256.667 143.820 M162.293 182.128 C 164.878 182.192,169.211 182.192,171.923 182.129 C 174.634 182.065,172.519 182.013,167.222 182.013 C 161.926 182.013,159.708 182.065,162.293 182.128 M188.321 182.308 C 188.223 182.567,188.186 196.278,188.240 212.778 L 188.338 242.778 188.428 212.500 L 188.519 182.222 197.765 182.222 L 207.012 182.222 207.138 186.204 L 207.264 190.185 207.243 186.111 L 207.222 182.037 197.861 181.938 C 190.573 181.861,188.461 181.943,188.321 182.308 M207.208 225.185 C 207.208 234.861,207.256 238.819,207.314 233.981 C 207.373 229.144,207.373 221.227,207.314 216.389 C 207.256 211.551,207.208 215.509,207.208 225.185 " stroke="none" fill="#9dacb4" fill-rule="evenodd"></path><path id="path3" d="M176.473 212.407 C 176.473 229.111,176.518 235.890,176.574 227.472 C 176.630 219.054,176.629 205.388,176.574 197.102 C 176.518 188.816,176.473 195.704,176.473 212.407 M246.753 206.667 C 246.753 207.380,246.829 207.671,246.922 207.315 C 247.015 206.958,247.015 206.375,246.922 206.019 C 246.829 205.662,246.753 205.954,246.753 206.667 M228.318 226.296 C 228.318 235.361,228.367 239.069,228.426 234.537 C 228.484 230.005,228.484 222.588,228.426 218.056 C 228.367 213.523,228.318 217.231,228.318 226.296 " stroke="none" fill="#78949d" fill-rule="evenodd"></path><path id="path4" d="" stroke="none" fill="#94acad" fill-rule="evenodd"></path></g></svg>